<?xml version="1.0" standalone="no"?>
<!DOCTYPE svg PUBLIC "-//W3C//DTD SVG 20010904//EN"
 "http://www.w3.org/TR/2001/REC-SVG-20010904/DTD/svg10.dtd">
<svg version="1.0" xmlns="http://www.w3.org/2000/svg"
 width="1135.000000pt" height="1135.000000pt" viewBox="0 0 1135.000000 1135.000000"
 preserveAspectRatio="xMidYMid meet">
<metadata>
Created by potrace 1.14, written by Peter Selinger 2001-2017
</metadata>
<g transform="translate(0.000000,1135.000000) scale(0.100000,-0.100000)"
fill="#000000" stroke="none">
<path d="M3874 8350 c-204 -116 -314 -555 -374 -1489 l-10 -154 -66 -101 c-89
-138 -214 -395 -263 -543 -115 -347 -141 -724 -76 -1108 36 -208 123 -491 215
-697 26 -60 43 -107 37 -104 -56 24 -391 126 -511 156 -234 59 -336 73 -489
68 -158 -5 -215 -25 -277 -95 -56 -64 -69 -130 -47 -236 46 -224 264 -533 715
-1012 l132 -140 0 -468 0 -469 29 -29 c35 -35 77 -38 115 -8 l26 20 0 455 0
454 150 0 150 0 0 -503 0 -504 23 -21 c29 -28 86 -29 118 -3 l24 19 3 506 3
506 194 0 195 0 0 -485 c0 -512 2 -532 45 -549 27 -10 79 -6 97 8 37 28 39 56
32 549 l-7 480 48 -6 c26 -4 114 -7 195 -7 l148 0 7 -502 8 -501 23 -24 c38
-38 111 -25 133 24 8 16 11 176 11 513 l0 490 125 0 125 0 0 -489 c0 -330 4
-498 11 -520 13 -36 35 -51 78 -51 43 0 60 9 77 41 12 25 13 97 8 524 l-7 495
166 0 167 0 0 -499 0 -499 26 -31 c34 -41 89 -43 125 -5 l24 26 -4 505 -3 506
47 -6 c26 -4 87 -7 135 -7 l87 0 6 -506 c6 -560 5 -547 71 -559 35 -7 71 6 94
34 11 13 12 113 7 524 l-7 507 166 0 166 0 0 -505 0 -506 25 -24 c33 -34 87
-34 120 0 l25 24 0 506 0 505 175 0 175 0 0 -504 c0 -486 1 -504 20 -528 11
-14 32 -28 46 -31 35 -6 82 10 94 33 6 12 10 214 10 526 l0 507 68 -6 c37 -4
93 -7 125 -7 l57 0 0 -499 0 -500 23 -26 c31 -36 86 -38 122 -5 l25 23 0 504
0 503 191 0 192 0 -8 -470 c-5 -354 -4 -477 5 -499 21 -52 94 -68 134 -28 21
21 23 34 29 182 4 88 7 306 7 485 l0 325 111 135 c370 451 588 799 654 1046
20 73 22 198 5 250 -30 89 -88 146 -191 186 -77 30 -274 36 -429 13 -161 -23
-424 -92 -668 -174 -114 -38 -208 -69 -208 -68 -1 1 25 49 59 107 293 512 383
1029 257 1490 -63 229 -193 477 -360 683 l-50 62 0 105 c0 235 -35 719 -71
965 -74 520 -194 748 -394 750 -88 0 -154 -35 -251 -138 -180 -188 -349 -498
-584 -1070 l-77 -188 -83 123 c-106 157 -125 178 -166 178 -40 0 -81 -32 -89
-70 -7 -30 -25 -42 -25 -16 0 22 -49 56 -80 56 -42 0 -73 -32 -110 -112 l-34
-73 -18 80 c-21 92 -41 115 -97 115 -49 0 -66 -19 -133 -154 -30 -60 -57 -105
-60 -100 -3 5 -38 90 -78 189 -232 577 -419 916 -599 1088 -115 110 -233 137
-337 77z m177 -170 c170 -112 409 -567 713 -1356 37 -96 52 -123 72 -133 68
-30 101 -7 163 117 52 104 50 104 71 0 16 -80 40 -108 94 -108 53 0 63 10 113
115 25 54 39 74 41 60 18 -102 42 -135 102 -135 56 0 73 21 110 140 l31 102
84 -124 c46 -68 93 -132 105 -143 28 -25 85 -25 110 1 10 10 61 125 113 254
265 661 497 1084 655 1194 49 33 81 33 115 -1 128 -135 218 -677 243 -1468 4
-115 11 -219 17 -230 6 -11 36 -52 68 -91 180 -220 300 -466 356 -725 28 -130
25 -447 -6 -588 -62 -290 -203 -599 -415 -909 -81 -120 -90 -158 -42 -198 15
-13 37 -24 49 -24 13 0 99 29 192 64 347 130 668 227 885 268 164 31 357 32
422 1 29 -13 52 -33 62 -52 77 -149 -129 -541 -581 -1103 l-93 -116 -643 5
c-353 3 -1460 10 -2461 17 l-1819 11 -79 85 c-390 418 -612 703 -688 886 -68
164 -33 214 150 214 175 0 453 -66 840 -198 319 -109 348 -115 384 -78 39 38
33 72 -38 214 -190 379 -291 720 -318 1074 -34 449 89 900 360 1315 69 106 73
115 78 180 2 37 9 140 14 228 44 681 145 1149 267 1245 34 27 52 25 104 -10z"/>
<path d="M4621 5958 c-99 -51 -109 -168 -21 -242 25 -20 42 -26 81 -26 92 0
149 53 149 140 0 114 -108 181 -209 128z"/>
<path d="M5803 5954 c-96 -48 -98 -210 -4 -259 104 -53 231 30 217 143 -14
105 -119 162 -213 116z"/>
<path d="M5266 5540 c-34 -11 -73 -45 -92 -82 -16 -32 -19 -111 -4 -139 9 -15
2 -36 -35 -108 -76 -147 -143 -209 -211 -197 -49 10 -125 75 -190 165 -42 58
-68 83 -89 89 -58 17 -115 -22 -115 -79 0 -68 175 -266 284 -319 62 -31 71
-32 147 -28 l81 5 10 -29 c24 -67 98 -207 136 -254 46 -59 126 -104 181 -104
87 2 160 50 229 154 50 74 142 273 142 305 0 14 10 20 44 25 75 12 165 64 242
141 86 86 108 124 99 171 -7 41 -38 64 -86 64 -33 0 -43 -8 -104 -75 -106
-119 -179 -152 -260 -116 -62 27 -91 51 -151 123 -47 56 -51 64 -44 95 28 124
-89 230 -214 193z m190 -471 c27 -26 65 -57 85 -70 l37 -24 -33 -82 c-61 -151
-131 -253 -174 -253 -36 0 -112 121 -161 257 l-22 62 40 61 c22 33 55 90 72
126 l31 65 38 -48 c21 -26 61 -69 87 -94z"/>
</g>
</svg>
